<?xml version="1.0" encoding="UTF-8" standalone="no"?>
<!-- Created with Inkscape (http://www.inkscape.org/) -->

<svg
   xmlns:dc="http://purl.org/dc/elements/1.1/"
   xmlns:cc="http://creativecommons.org/ns#"
   xmlns:rdf="http://www.w3.org/1999/02/22-rdf-syntax-ns#"
   xmlns:svg="http://www.w3.org/2000/svg"
   xmlns="http://www.w3.org/2000/svg"
   xmlns:xlink="http://www.w3.org/1999/xlink"
   xmlns:sodipodi="http://sodipodi.sourceforge.net/DTD/sodipodi-0.dtd"
   xmlns:inkscape="http://www.inkscape.org/namespaces/inkscape"
   width="301.625mm"
   height="95.25mm"
   viewBox="0 0 301.625 95.25"
   version="1.1"
   id="svg8"
   inkscape:version="0.92.3 (2405546, 2018-03-11)"
   sodipodi:docname="apothecaries.svg">
  <defs
     id="defs2">
    <linearGradient
       id="linearGradient4629-6-7"
       inkscape:collect="always">
      <stop
         id="stop4824"
         offset="0"
         style="stop-color:#ff4b00;stop-opacity:1" />
      <stop
         id="stop4826"
         offset="1"
         style="stop-color:#5e1e00;stop-opacity:1" />
    </linearGradient>
    <linearGradient
       id="linearGradient4802"
       inkscape:collect="always">
      <stop
         id="stop4798"
         offset="0"
         style="stop-color:#fcff95;stop-opacity:1" />
      <stop
         id="stop4800"
         offset="1"
         style="stop-color:#ffe052;stop-opacity:1" />
    </linearGradient>
    <linearGradient
       inkscape:collect="always"
       id="linearGradient4629-6-7-6">
      <stop
         style="stop-color:#502d16;stop-opacity:1;"
         offset="0"
         id="stop4625" />
      <stop
         style="stop-color:#040201;stop-opacity:1"
         offset="1"
         id="stop4627" />
    </linearGradient>
    <linearGradient
       inkscape:collect="always"
       id="linearGradient4607">
      <stop
         style="stop-color:#ffe6d5;stop-opacity:1;"
         offset="0"
         id="stop4603" />
      <stop
         style="stop-color:#ffc196;stop-opacity:1"
         offset="1"
         id="stop4605" />
    </linearGradient>
    <linearGradient
       inkscape:collect="always"
       xlink:href="#linearGradient4607"
       id="linearGradient4609"
       x1="105.16931"
       y1="-76.388695"
       x2="105.16931"
       y2="-64.801422"
       gradientUnits="userSpaceOnUse" />
    <linearGradient
       inkscape:collect="always"
       xlink:href="#linearGradient4629-6-7-6"
       id="linearGradient4631"
       x1="116.88201"
       y1="28.505913"
       x2="117.97653"
       y2="44.728287"
       gradientUnits="userSpaceOnUse"
       gradientTransform="matrix(1.1709402,0,0,1.0040404,-38.036055,0.60021611)" />
    <linearGradient
       inkscape:collect="always"
       xlink:href="#linearGradient4629-6-7-6"
       id="linearGradient4639"
       x1="94.581741"
       y1="38.022312"
       x2="104.85491"
       y2="54.889496"
       gradientUnits="userSpaceOnUse" />
    <linearGradient
       inkscape:collect="always"
       xlink:href="#linearGradient4607"
       id="linearGradient4647"
       x1="105.28159"
       y1="74.287315"
       x2="104.93622"
       y2="45.561127"
       gradientUnits="userSpaceOnUse" />
    <linearGradient
       gradientTransform="matrix(0.87567483,0,0,0.87567483,-54.562711,5.5064337)"
       inkscape:collect="always"
       xlink:href="#linearGradient4802"
       id="linearGradient4639-8"
       x1="94.581741"
       y1="38.022312"
       x2="104.85491"
       y2="54.889496"
       gradientUnits="userSpaceOnUse" />
    <linearGradient
       gradientTransform="matrix(0.87567483,0,0,0.87567483,-54.562711,5.5064337)"
       inkscape:collect="always"
       xlink:href="#linearGradient4607"
       id="linearGradient4647-5"
       x1="105.28159"
       y1="74.287315"
       x2="104.93622"
       y2="45.561127"
       gradientUnits="userSpaceOnUse" />
    <linearGradient
       gradientTransform="matrix(0.87567483,0,0,0.87567483,-54.562711,-5.5064337)"
       inkscape:collect="always"
       xlink:href="#linearGradient4607"
       id="linearGradient4609-1"
       x1="105.16931"
       y1="-76.388695"
       x2="105.16931"
       y2="-64.801422"
       gradientUnits="userSpaceOnUse" />
    <linearGradient
       gradientTransform="matrix(0.87567483,0,0,0.87567483,80.611587,-6.6705987)"
       inkscape:collect="always"
       xlink:href="#linearGradient4607"
       id="linearGradient4609-1-4"
       x1="105.16931"
       y1="-76.388695"
       x2="105.16931"
       y2="-64.801422"
       gradientUnits="userSpaceOnUse" />
    <linearGradient
       gradientTransform="matrix(0.87567483,0,0,0.87567483,80.611587,6.6705987)"
       inkscape:collect="always"
       xlink:href="#linearGradient4607"
       id="linearGradient4647-5-4"
       x1="105.28159"
       y1="74.287315"
       x2="104.93622"
       y2="45.561127"
       gradientUnits="userSpaceOnUse" />
    <linearGradient
       inkscape:collect="always"
       xlink:href="#linearGradient4629-6-7"
       id="linearGradient4631-0-2"
       x1="116.88201"
       y1="28.505913"
       x2="119.5432"
       y2="38.763386"
       gradientUnits="userSpaceOnUse"
       gradientTransform="matrix(1.0201099,0.10365787,-0.08888301,0.87470862,44.146963,-3.8762374)" />
    <linearGradient
       gradientTransform="matrix(0.87567483,0,0,0.87567483,80.611587,6.6705987)"
       inkscape:collect="always"
       xlink:href="#linearGradient4629-6-7"
       id="linearGradient4639-8-2"
       x1="94.581741"
       y1="38.022312"
       x2="102.03167"
       y2="53.744938"
       gradientUnits="userSpaceOnUse" />
  </defs>
  <sodipodi:namedview
     id="base"
     pagecolor="#ffffff"
     bordercolor="#666666"
     borderopacity="1.0"
     inkscape:pageopacity="0.0"
     inkscape:pageshadow="2"
     inkscape:zoom="0.98994949"
     inkscape:cx="272.86987"
     inkscape:cy="265.6437"
     inkscape:document-units="mm"
     inkscape:current-layer="layer1"
     showgrid="false"
     fit-margin-top="0"
     fit-margin-left="0"
     fit-margin-right="0"
     fit-margin-bottom="0"
     inkscape:window-width="1920"
     inkscape:window-height="1012"
     inkscape:window-x="-8"
     inkscape:window-y="-8"
     inkscape:window-maximized="1"
     inkscape:snap-global="false" />
  <metadata
     id="metadata5">
    <rdf:RDF>
      <cc:Work
         rdf:about="">
        <dc:format>image/svg+xml</dc:format>
        <dc:type
           rdf:resource="http://purl.org/dc/dcmitype/StillImage" />
        <dc:title></dc:title>
      </cc:Work>
    </rdf:RDF>
  </metadata>
  <g
     inkscape:label="Layer 1"
     inkscape:groupmode="layer"
     id="layer1"
     transform="translate(49.784614,-26.472214)">
    <g
       id="g3727"
       transform="matrix(0.26458333,0,0,0.26458333,-49.784614,26.472214)">
      <path
         id="path3713"
         d="M 0,0 H 1140 V 360 H 0 Z"
         inkscape:connector-curvature="0"
         style="fill:#56b4d9" />
      <path
         id="path3715"
         d="m 163.29,114.514 h -3.996 l -3.266,-8.637 h -13.063 l -3.072,8.637 h -4.018 l 11.816,-30.809 h 3.738 z m -8.443,-11.881 -4.834,-13.127 c -0.158,-0.43 -0.315,-1.117 -0.473,-2.063 h -0.086 c -0.144,0.874 -0.308,1.562 -0.494,2.063 l -4.791,13.127 z m 10.921,10.635 v -4.254 c 0.487,0.43 1.07,0.816 1.751,1.16 0.68,0.344 1.396,0.634 2.148,0.87 0.752,0.236 1.507,0.419 2.267,0.548 0.759,0.129 1.461,0.193 2.105,0.193 2.22,0 3.878,-0.412 4.974,-1.235 1.096,-0.823 1.644,-2.009 1.644,-3.556 0,-0.831 -0.183,-1.554 -0.548,-2.17 -0.365,-0.616 -0.87,-1.178 -1.515,-1.687 -0.645,-0.509 -1.407,-0.995 -2.288,-1.461 -0.881,-0.466 -1.83,-0.956 -2.847,-1.472 -1.074,-0.544 -2.077,-1.096 -3.008,-1.654 -0.931,-0.559 -1.74,-1.175 -2.428,-1.848 -0.688,-0.673 -1.229,-1.436 -1.622,-2.288 -0.394,-0.853 -0.591,-1.852 -0.591,-2.997 0,-1.403 0.308,-2.625 0.924,-3.663 0.616,-1.038 1.425,-1.895 2.428,-2.567 1.002,-0.673 2.145,-1.175 3.427,-1.504 1.282,-0.329 2.589,-0.494 3.921,-0.494 3.036,0 5.249,0.365 6.639,1.096 v 4.061 c -1.819,-1.261 -4.154,-1.891 -7.004,-1.891 -0.788,0 -1.576,0.082 -2.363,0.247 -0.788,0.165 -1.49,0.434 -2.105,0.806 -0.616,0.372 -1.117,0.853 -1.504,1.439 -0.387,0.586 -0.58,1.304 -0.58,2.148 0,0.788 0.146,1.468 0.44,2.041 0.293,0.573 0.727,1.096 1.3,1.568 0.573,0.473 1.271,0.931 2.095,1.375 0.823,0.444 1.772,0.931 2.847,1.461 1.103,0.544 2.148,1.117 3.137,1.719 0.989,0.602 1.854,1.268 2.6,1.998 0.745,0.73 1.335,1.54 1.772,2.428 0.437,0.888 0.655,1.905 0.655,3.051 0,1.519 -0.297,2.804 -0.892,3.856 -0.595,1.053 -1.396,1.908 -2.406,2.567 -1.01,0.659 -2.174,1.135 -3.491,1.429 -1.318,0.293 -2.707,0.44 -4.168,0.44 -0.487,0 -1.089,-0.04 -1.805,-0.118 -0.716,-0.079 -1.447,-0.193 -2.191,-0.344 -0.745,-0.15 -1.45,-0.337 -2.116,-0.559 -0.666,-0.222 -1.202,-0.467 -1.602,-0.739 z m 27.808,-10.399 v 11.645 h -3.609 V 83.705 h 8.465 c 3.294,0 5.847,0.802 7.659,2.406 1.812,1.604 2.718,3.867 2.718,6.789 0,2.922 -1.006,5.313 -3.019,7.176 -2.013,1.862 -4.73,2.793 -8.153,2.793 z m 0,-15.898 v 12.633 h 3.781 c 2.492,0 4.394,-0.569 5.704,-1.708 1.31,-1.139 1.966,-2.746 1.966,-4.823 0,-4.067 -2.406,-6.102 -7.219,-6.102 z m 21.169,28.015 c -0.659,0 -1.221,-0.236 -1.687,-0.709 -0.466,-0.473 -0.698,-1.038 -0.698,-1.697 0,-0.659 0.232,-1.229 0.698,-1.708 0.465,-0.479 1.027,-0.72 1.687,-0.72 0.673,0 1.246,0.24 1.719,0.72 0.473,0.48 0.709,1.049 0.709,1.708 0,0.659 -0.236,1.225 -0.709,1.697 -0.473,0.472 -1.047,0.709 -1.719,0.709 z m 33.007,-0.472 h -4.426 L 227.471,89.957 c -0.401,-0.616 -0.73,-1.261 -0.988,-1.934 h -0.129 c 0.114,0.659 0.172,2.069 0.172,4.232 v 22.258 h -3.609 V 83.705 h 4.684 l 15.426,24.17 c 0.645,1.003 1.06,1.69 1.246,2.063 h 0.086 c -0.144,-0.888 -0.215,-2.399 -0.215,-4.533 v -21.7 h 3.609 v 30.809 z m 23.79,0 H 255.214 V 83.705 h 15.641 v 3.266 h -12.031 v 10.248 h 11.129 v 3.244 h -11.129 v 10.785 h 12.719 v 3.266 z m 23.533,-27.543 h -8.895 v 27.543 h -3.609 V 86.971 h -8.873 v -3.266 h 21.377 z m 36.623,26.254 c -2.277,1.203 -5.113,1.805 -8.508,1.805 -4.383,0 -7.892,-1.411 -10.527,-4.232 -2.636,-2.821 -3.953,-6.524 -3.953,-11.107 0,-4.927 1.482,-8.909 4.447,-11.945 2.965,-3.036 6.725,-4.555 11.279,-4.555 2.922,0 5.342,0.423 7.262,1.268 v 3.846 c -2.206,-1.231 -4.641,-1.848 -7.305,-1.848 -3.538,0 -6.406,1.182 -8.604,3.545 -2.199,2.363 -3.298,5.521 -3.298,9.475 0,3.753 1.027,6.742 3.083,8.97 2.055,2.228 4.751,3.341 8.089,3.341 3.094,0 5.772,-0.688 8.035,-2.063 z m 14.38,1.804 c -3.251,0 -5.848,-1.027 -7.788,-3.083 -1.941,-2.056 -2.911,-4.78 -2.911,-8.175 0,-3.695 1.01,-6.581 3.029,-8.658 2.019,-2.077 4.748,-3.115 8.186,-3.115 3.28,0 5.84,1.01 7.681,3.029 1.84,2.02 2.761,4.819 2.761,8.4 0,3.509 -0.992,6.32 -2.976,8.433 -1.984,2.113 -4.645,3.169 -7.982,3.169 z m 0.258,-20.066 c -2.263,0 -4.054,0.77 -5.371,2.31 -1.318,1.54 -1.977,3.663 -1.977,6.37 0,2.606 0.666,4.662 1.998,6.166 1.332,1.504 3.115,2.256 5.35,2.256 2.277,0 4.028,-0.737 5.253,-2.213 1.225,-1.476 1.837,-3.573 1.837,-6.295 0,-2.75 -0.612,-4.87 -1.837,-6.359 -1.225,-1.489 -2.976,-2.235 -5.253,-2.235 z m 27.185,1.117 c -0.616,-0.473 -1.504,-0.709 -2.664,-0.709 -1.504,0 -2.761,0.709 -3.771,2.127 -1.01,1.418 -1.515,3.352 -1.515,5.801 v 11.215 h -3.523 v -22 h 3.523 v 4.533 h 0.086 c 0.501,-1.547 1.268,-2.754 2.299,-3.62 1.031,-0.866 2.184,-1.3 3.459,-1.3 0.917,0 1.618,0.101 2.105,0.301 v 3.652 z m 20.89,8.315 h -15.533 c 0.057,2.449 0.716,4.34 1.977,5.672 1.26,1.332 2.993,1.998 5.199,1.998 2.478,0 4.755,-0.816 6.832,-2.449 v 3.309 c -1.934,1.403 -4.49,2.105 -7.67,2.105 -3.108,0 -5.55,-0.999 -7.326,-2.997 -1.776,-1.998 -2.664,-4.809 -2.664,-8.433 0,-3.423 0.97,-6.213 2.911,-8.368 1.94,-2.155 4.351,-3.233 7.229,-3.233 2.878,0 5.106,0.931 6.682,2.793 1.575,1.862 2.363,4.447 2.363,7.756 z m -3.61,-2.987 c -0.015,-2.034 -0.505,-3.616 -1.472,-4.748 -0.967,-1.132 -2.31,-1.697 -4.028,-1.697 -1.662,0 -3.072,0.595 -4.232,1.783 -1.16,1.188 -1.876,2.743 -2.148,4.662 z M 431.5,62 h -1 v 74 h 1 z m 83.592,54.095 H 513.25 L 506.085,91.86 c -0.359,-1.243 -0.562,-2.253 -0.606,-3.032 h -0.09 c -0.045,0.659 -0.277,1.655 -0.696,2.987 l -7.637,24.28 h -1.842 l -9.568,-32.209 h 2.493 l 7.345,25.808 c 0.329,1.168 0.562,2.119 0.696,2.853 h 0.09 c 0.09,-0.554 0.352,-1.505 0.786,-2.853 l 7.951,-25.808 h 1.123 l 7.3,25.808 c 0.344,1.198 0.576,2.149 0.696,2.853 h 0.09 c 0.075,-0.419 0.194,-0.898 0.359,-1.438 l 7.547,-27.223 h 2.403 z M 529.537,87.3 c -0.449,0 -0.846,-0.165 -1.19,-0.494 -0.345,-0.329 -0.517,-0.749 -0.517,-1.258 0,-0.494 0.176,-0.895 0.528,-1.202 0.352,-0.307 0.745,-0.46 1.179,-0.46 0.464,0 0.872,0.15 1.224,0.449 0.352,0.3 0.528,0.704 0.528,1.213 0,0.479 -0.172,0.891 -0.517,1.235 -0.344,0.345 -0.756,0.517 -1.235,0.517 z m -1.011,28.795 v -23 h 2.066 v 23 z m 24.239,0 v -13.387 c 0,-5.525 -1.992,-8.288 -5.975,-8.288 -2.216,0 -4.036,0.813 -5.458,2.437 -1.423,1.625 -2.134,3.635 -2.134,6.031 v 13.207 h -2.066 v -23 h 2.066 v 4.178 h 0.09 c 1.677,-3.159 4.297,-4.739 7.861,-4.739 2.485,0 4.387,0.828 5.705,2.482 1.317,1.655 1.977,4.017 1.977,7.086 v 13.993 z m 24.485,0 v -4.178 h -0.09 c -0.748,1.453 -1.855,2.605 -3.324,3.459 -1.467,0.854 -3.122,1.28 -4.963,1.28 -2.83,0 -5.14,-1.033 -6.929,-3.1 -1.79,-2.066 -2.684,-4.919 -2.684,-8.558 0,-3.713 0.977,-6.719 2.931,-9.018 1.954,-2.298 4.488,-3.448 7.603,-3.448 3.445,0 5.9,1.415 7.367,4.245 h 0.09 V 82.044 h 2.066 v 34.051 z m 0,-13.993 c 0,-2.141 -0.678,-3.957 -2.031,-5.447 -1.355,-1.49 -3.18,-2.235 -5.47,-2.235 -2.411,0 -4.402,0.925 -5.975,2.774 -1.572,1.85 -2.358,4.391 -2.358,7.625 0,3.175 0.708,5.626 2.123,7.356 1.415,1.73 3.238,2.594 5.469,2.594 2.62,0 4.649,-0.812 6.086,-2.437 1.438,-1.625 2.156,-3.605 2.156,-5.941 z m 17.838,14.554 c -3.354,0 -6.009,-1.104 -7.962,-3.313 -1.955,-2.208 -2.932,-5.08 -2.932,-8.614 0,-3.818 1.021,-6.806 3.066,-8.962 2.043,-2.156 4.735,-3.234 8.074,-3.234 3.279,0 5.87,1.071 7.771,3.212 1.901,2.142 2.853,5.106 2.853,8.895 0,3.579 -0.97,6.477 -2.909,8.692 -1.938,2.216 -4.592,3.324 -7.961,3.324 z m 0.157,-22.236 c -2.71,0 -4.87,0.914 -6.48,2.74 -1.609,1.827 -2.414,4.365 -2.414,7.614 0,3.01 0.786,5.428 2.358,7.255 1.572,1.827 3.721,2.74 6.446,2.74 2.771,0 4.904,-0.898 6.401,-2.695 1.497,-1.797 2.246,-4.29 2.246,-7.479 0,-3.279 -0.745,-5.795 -2.235,-7.547 -1.489,-1.752 -3.596,-2.628 -6.322,-2.628 z m 35.087,21.675 H 628.4 l -5.009,-17.34 c -0.135,-0.479 -0.255,-1.123 -0.359,-1.932 h -0.112 c -0.03,0.345 -0.18,0.974 -0.449,1.887 l -5.615,17.385 h -1.932 l -6.94,-23 h 2.291 l 5.346,18.351 c 0.135,0.479 0.239,1.123 0.314,1.932 h 0.18 c 0.03,-0.434 0.172,-1.078 0.427,-1.932 l 5.84,-18.351 h 1.415 l 5.211,18.351 c 0.12,0.435 0.225,1.078 0.314,1.932 h 0.18 c 0,-0.434 0.127,-1.078 0.382,-1.932 l 5.458,-18.351 h 2.134 z m 9.616,-1.011 v -2.493 c 0.778,0.674 1.722,1.206 2.83,1.595 1.108,0.39 2.066,0.584 2.875,0.584 3.608,0 5.413,-1.475 5.413,-4.425 0,-1.018 -0.396,-1.887 -1.19,-2.605 -0.794,-0.718 -2.081,-1.46 -3.863,-2.224 -2.201,-0.958 -3.747,-1.95 -4.638,-2.976 -0.892,-1.025 -1.337,-2.272 -1.337,-3.74 0,-1.872 0.715,-3.384 2.146,-4.537 1.43,-1.153 3.192,-1.729 5.289,-1.729 1.977,0 3.669,0.404 5.076,1.213 v 2.336 c -1.707,-1.108 -3.474,-1.662 -5.301,-1.662 -1.513,0 -2.732,0.393 -3.661,1.179 -0.929,0.786 -1.393,1.808 -1.393,3.066 0,1.093 0.292,1.98 0.876,2.662 0.584,0.682 1.872,1.464 3.863,2.347 2.396,1.078 4.043,2.078 4.941,2.999 0.898,0.921 1.348,2.145 1.348,3.672 0,1.827 -0.686,3.335 -2.055,4.526 -1.371,1.19 -3.261,1.786 -5.672,1.786 -2.215,-0.002 -4.064,-0.526 -5.547,-1.574 z m 80.185,1.011 V 83.886 h 2.224 v 30.188 h 12.915 v 2.021 z M 740.935,87.3 c -0.449,0 -0.846,-0.165 -1.19,-0.494 -0.345,-0.329 -0.517,-0.749 -0.517,-1.258 0,-0.494 0.176,-0.895 0.528,-1.202 0.352,-0.307 0.744,-0.46 1.179,-0.46 0.464,0 0.872,0.15 1.224,0.449 0.353,0.3 0.528,0.704 0.528,1.213 0,0.479 -0.172,0.891 -0.517,1.235 -0.345,0.345 -0.756,0.517 -1.235,0.517 z m -1.011,28.795 v -23 h 2.066 v 23 z m 24.238,0 v -13.387 c 0,-5.525 -1.991,-8.288 -5.975,-8.288 -2.216,0 -4.035,0.813 -5.458,2.437 -1.423,1.625 -2.134,3.635 -2.134,6.031 v 13.207 h -2.066 v -23 h 2.066 v 4.178 h 0.09 c 1.677,-3.159 4.298,-4.739 7.861,-4.739 2.485,0 4.388,0.828 5.705,2.482 1.317,1.655 1.977,4.017 1.977,7.086 v 13.993 z m 23.34,0 v -4.178 h -0.09 c -1.603,3.16 -4.073,4.739 -7.412,4.739 -5.436,0 -8.153,-3.421 -8.153,-10.265 V 93.095 h 2.089 v 12.78 c 0,3.115 0.513,5.376 1.539,6.783 1.025,1.408 2.639,2.111 4.84,2.111 2.142,0 3.875,-0.786 5.199,-2.358 1.326,-1.572 1.988,-3.668 1.988,-6.289 V 93.095 h 2.066 v 23 z m 15.727,-11.276 7.502,11.275 h -2.628 l -6.064,-9.703 h -0.09 l -0.809,1.28 c -0.104,0.18 -0.232,0.382 -0.382,0.606 l -5.076,7.816 h -2.516 l 7.682,-11.23 -7.547,-11.77 h 2.426 l 5.121,8.243 c 0.659,1.063 1.056,1.722 1.19,1.977 h 0.09 l 1.146,-1.887 5.346,-8.333 h 2.426 z m 85.656,11.837 c -4.552,0 -8.18,-1.512 -10.883,-4.537 -2.702,-3.024 -4.054,-6.955 -4.054,-11.792 0,-5.136 1.389,-9.25 4.167,-12.342 2.777,-3.092 6.569,-4.638 11.376,-4.638 4.343,0 7.857,1.486 10.546,4.458 2.688,2.973 4.031,6.87 4.031,11.691 0,5.331 -1.378,9.523 -4.133,12.578 -2.755,3.055 -6.438,4.582 -11.05,4.582 z m 0.224,-31.288 c -3.743,0 -6.824,1.355 -9.242,4.065 -2.419,2.71 -3.628,6.259 -3.628,10.646 0,4.433 1.146,7.962 3.437,10.59 2.291,2.628 5.346,3.942 9.164,3.942 3.983,0 7.135,-1.299 9.456,-3.897 2.321,-2.598 3.481,-6.218 3.481,-10.86 0,-4.552 -1.135,-8.104 -3.402,-10.658 -2.27,-2.551 -5.357,-3.828 -9.266,-3.828 z m 19.702,29.581 v -2.538 c 2.306,1.468 4.642,2.201 7.008,2.201 2.516,0 4.425,-0.52 5.728,-1.561 1.303,-1.041 1.954,-2.497 1.954,-4.369 0,-1.647 -0.438,-2.961 -1.313,-3.942 -0.877,-0.98 -2.774,-2.317 -5.694,-4.009 -3.265,-1.901 -5.331,-3.493 -6.199,-4.773 -0.868,-1.28 -1.303,-2.759 -1.303,-4.436 0,-2.276 0.884,-4.208 2.65,-5.795 1.767,-1.587 4.125,-2.381 7.075,-2.381 1.917,0 3.833,0.322 5.75,0.966 v 2.336 c -1.887,-0.854 -3.9,-1.28 -6.042,-1.28 -2.187,0 -3.919,0.554 -5.2,1.662 -1.279,1.108 -1.92,2.516 -1.92,4.223 0,1.647 0.438,2.958 1.314,3.931 0.875,0.974 2.766,2.299 5.671,3.976 3.01,1.707 5.013,3.223 6.009,4.548 0.995,1.325 1.493,2.849 1.493,4.571 0,2.471 -0.857,4.485 -2.571,6.042 -1.715,1.558 -4.137,2.336 -7.267,2.336 -1.108,0 -2.385,-0.172 -3.829,-0.517 -1.446,-0.345 -2.551,-0.742 -3.314,-1.191 z m 40.5,1.146 -7.412,-12.286 c -0.464,-0.764 -0.861,-1.512 -1.19,-2.246 h -0.112 c -0.404,0.824 -0.831,1.572 -1.28,2.246 l -7.547,12.286 h -2.673 l 10.175,-16.239 -9.568,-15.97 h 2.673 l 7.21,12.106 c 0.374,0.629 0.764,1.348 1.168,2.156 h 0.09 l 1.19,-2.156 7.165,-12.106 h 2.583 l -9.658,15.925 9.883,16.284 z"
         inkscape:connector-curvature="0"
         style="fill:#ffffff" />
    </g>
    <rect
       id="rect3729"
       width="301.625"
       height="95.25"
       x="-49.784615"
       y="26.472214"
       style="stroke-width:0.26458332;fill:#dde9af" />
    <rect
       style="fill:#ffffff;stroke:none;stroke-width:0.26458332"
       id="rect4567"
       width="66.817383"
       height="28.196934"
       x="72.223923"
       y="86.709908" />
    <ellipse
       style="fill:#ffffff;stroke:none;stroke-width:0.30566141"
       id="path4571"
       cx="105.59954"
       cy="88.184059"
       rx="33.442448"
       ry="17.710203" />
    <ellipse
       style="fill:url(#linearGradient4609);fill-opacity:1;stroke:none;stroke-width:0.07671057"
       id="path4571-7-7"
       cx="105.04388"
       cy="-71.120651"
       rx="8.6625061"
       ry="10.130537"
       transform="scale(1,-1)" />
    <ellipse
       style="fill:url(#linearGradient4647);stroke:none;stroke-width:0.22450314;fill-opacity:1"
       id="path4571-7"
       cx="105.08528"
       cy="54.774296"
       rx="18.04104"
       ry="17.710203" />
    <ellipse
       style="fill:url(#linearGradient4631);fill-opacity:1;stroke:none;stroke-width:0.28688338"
       id="path4613"
       cx="99.227913"
       cy="37.328182"
       rx="9.1539812"
       ry="8.3020601" />
    <path
       style="fill:url(#linearGradient4639);fill-opacity:1;stroke:none;stroke-width:0.26458332px;stroke-linecap:butt;stroke-linejoin:miter;stroke-opacity:1"
       d="m 87.022213,54.297114 c 0,0 25.041297,-14.710407 35.408577,-4.34313 2.93996,-2.338608 -0.0928,-17.092534 -16.59517,-17.092534 -18.403264,0 -21.530111,17.863981 -18.813407,21.435664 z"
       id="path4611"
       inkscape:connector-curvature="0"
       sodipodi:nodetypes="cccc" />
    <rect
       style="fill:#f2f2f2;stroke:none;stroke-width:0.23168895"
       id="rect4567-4"
       width="58.5103"
       height="24.691345"
       x="8.6819649"
       y="81.436119" />
    <ellipse
       style="fill:#f2f2f2;stroke:none;stroke-width:0.26766002"
       id="path4571-1"
       cx="37.908154"
       cy="82.726997"
       rx="29.28471"
       ry="15.508379" />
    <ellipse
       style="fill:url(#linearGradient4609-1);fill-opacity:1;stroke:none;stroke-width:0.06717351"
       id="path4571-7-7-8"
       cx="37.421574"
       cy="-67.785004"
       rx="7.5855384"
       ry="8.8710566"
       transform="scale(1,-1)" />
    <ellipse
       style="fill:url(#linearGradient4647-5);fill-opacity:1;stroke:none;stroke-width:0.19659175"
       id="path4571-7-2"
       cx="37.457825"
       cy="53.470905"
       rx="15.798085"
       ry="15.508379" />
    <path
       style="fill:url(#linearGradient4639-8);fill-opacity:1;stroke:none;stroke-width:0.23168895px;stroke-linecap:butt;stroke-linejoin:miter;stroke-opacity:1"
       d="m 21.64045,53.053049 c 0,0 5.37581,-0.270042 6.962383,-4.544005 1.388108,-3.739332 1.700229,-5.998386 1.700229,-5.998386 2.069104,3.624676 19.907921,2.0773 22.34379,6.739222 2.138156,-1.436574 -0.17305,-14.415086 -14.623713,-14.415086 -16.115272,0 -18.420619,14.183518 -16.382689,18.218255 z"
       id="path4611-0"
       inkscape:connector-curvature="0"
       sodipodi:nodetypes="cssccc" />
    <rect
       style="fill:#d5e5ff;stroke:none;stroke-width:0.23168895"
       id="rect4567-4-1"
       width="58.5103"
       height="24.691345"
       x="143.85626"
       y="82.600288" />
    <ellipse
       style="fill:#d5e5ff;stroke:none;stroke-width:0.26766002"
       id="path4571-1-6"
       cx="173.08244"
       cy="83.891167"
       rx="29.284712"
       ry="15.508379" />
    <ellipse
       style="fill:url(#linearGradient4609-1-4);fill-opacity:1;stroke:none;stroke-width:0.06717351"
       id="path4571-7-7-8-9"
       cx="172.59587"
       cy="-68.949173"
       rx="7.5855384"
       ry="8.8710566"
       transform="scale(1,-1)" />
    <path
       style="fill:url(#linearGradient4631-0-2);fill-opacity:1;stroke:none;stroke-width:0.25121656"
       d="m 168.45325,41.082444 c -0.24742,2.434971 -0.45842,7.18744 -4.81207,7.848787 -3.69807,1.448539 -2.91774,4.477235 -7.15096,6.711043 -1.80486,0.761158 -3.51385,-2.055435 -4.11389,-5.992117 -0.61432,-4.030445 -0.62084,-7.032692 -0.41043,-9.103298 0.40589,-3.994487 4.84308,-7.954982 9.24746,-7.507434 4.40437,0.44755 7.64579,4.048532 7.23989,8.043019 z"
       id="path4613-7-5"
       inkscape:connector-curvature="0"
       sodipodi:nodetypes="sccssss" />
    <ellipse
       style="fill:url(#linearGradient4647-5-4);fill-opacity:1;stroke:none;stroke-width:0.19659175"
       id="path4571-7-2-7"
       cx="172.63213"
       cy="54.635067"
       rx="15.798086"
       ry="15.508379" />
    <path
       style="fill:url(#linearGradient4639-8-2);fill-opacity:1;stroke:none;stroke-width:0.23168895px;stroke-linecap:butt;stroke-linejoin:miter;stroke-opacity:1"
       d="m 156.40134,54.158157 c 0,0 0.38805,1.30766 1.12954,0.116161 0.88819,-1.427241 2.84076,-5.508166 6.76972,-7.985371 6.01693,-2.183767 17.66112,2.211987 16.85598,1.3854 -7.04353,-6.417601 3.07748,-0.947614 6.66457,2.739699 1.36976,-1.002261 1.37519,-14.641248 -14.54543,-14.674657 -16.11528,0 -17.48859,13.860956 -16.87438,18.418768 z"
       id="path4611-0-2"
       inkscape:connector-curvature="0"
       sodipodi:nodetypes="csccccc" />
    <rect
       id="rect3729-4"
       width="301.625"
       height="29.933397"
       x="-49.589836"
       y="91.572571"
       style="fill:#dde9af;stroke-width:0.14832281" />
  </g>
</svg>
